ExploreSansVariable-ExtraLightSans.ufo
<glyph name="dollar" format="2">
  <advance width="588"/>
  <unicode hex="0024"/>
  <outline>
    <contour>
      <point x="284" y="863" type="line"/>
      <point x="319" y="863" type="line"/>
      <point x="319" y="-139" type="line"/>
      <point x="284" y="-139" type="line"/>
    </contour>
    <component base="S"/>
  </outline>
</glyph>
<glyph name="ampersand" format="2">
  <advance width="683"/>
  <unicode hex="0026"/>
  <outline>
    <contour>
      <point x="309" y="716" type="curve" smooth="yes"/>
      <point x="368" y="716"/>
      <point x="403" y="699"/>
      <point x="447" y="670" type="curve"/>
      <point x="430" y="646" type="line"/>
      <point x="399" y="668"/>
      <point x="362" y="688"/>
      <point x="308" y="688" type="curve" smooth="yes"/>
      <point x="215" y="688"/>
      <point x="168" y="624"/>
      <point x="168" y="562" type="curve" smooth="yes"/>
      <point x="168" y="505"/>
      <point x="182" y="471"/>
      <point x="221" y="424" type="curve"/>
      <point x="587" y="0" type="line"/>
      <point x="549" y="0" type="line"/>
      <point x="214" y="387" type="line"/>
      <point x="151" y="460"/>
      <point x="136" y="500"/>
      <point x="136" y="564" type="curve" smooth="yes"/>
      <point x="136" y="640"/>
      <point x="196" y="716"/>
    </contour>
    <contour>
      <point x="211" y="426" type="line"/>
      <point x="219" y="401" type="line"/>
      <point x="215" y="401" type="line" smooth="yes"/>
      <point x="117" y="401"/>
      <point x="74" y="304"/>
      <point x="74" y="211" type="curve" smooth="yes"/>
      <point x="74" y="98"/>
      <point x="138" y="20"/>
      <point x="253" y="20" type="curve" smooth="yes"/>
      <point x="339" y="20"/>
      <point x="413" y="57"/>
      <point x="438" y="152" type="curve"/>
      <point x="500" y="398" type="line"/>
      <point x="641" y="388" type="line"/>
      <point x="641" y="359" type="line"/>
      <point x="523" y="367" type="line"/>
      <point x="511" y="320"/>
      <point x="477" y="192"/>
      <point x="464" y="137" type="curve"/>
      <point x="438" y="38"/>
      <point x="352" y="-8"/>
      <point x="247" y="-8" type="curve" smooth="yes"/>
      <point x="120" y="-8"/>
      <point x="42" y="82"/>
      <point x="42" y="214" type="curve" smooth="yes"/>
      <point x="42" y="338"/>
      <point x="115" y="426"/>
      <point x="207" y="426" type="curve" smooth="yes"/>
    </contour>
  </outline>
</glyph>
<glyph name="quotesingle" format="2">
  <advance width="142"/>
  <unicode hex="0027"/>
  <outline>
    <contour>
      <point x="61" y="772" type="line"/>
      <point x="97" y="772" type="line"/>
      <point x="92" y="508" type="line"/>
      <point x="66" y="508" type="line"/>
    </contour>
  </outline>
</glyph>
<glyph name="three" format="2">
  <advance width="550"/>
  <unicode hex="0033"/>
  <outline>
    <contour>
      <point x="90" y="708" type="line"/>
      <point x="457" y="708" type="line"/>
      <point x="457" y="680" type="line"/>
      <point x="262" y="425" type="line"/>
      <point x="389" y="421"/>
      <point x="499" y="368"/>
      <point x="499" y="212" type="curve"/>
      <point x="499" y="70"/>
      <point x="400" y="-8"/>
      <point x="266" y="-8" type="curve" smooth="yes"/>
      <point x="144" y="-8"/>
      <point x="106" y="25"/>
      <point x="58" y="55" type="curve"/>
      <point x="69" y="83" type="line"/>
      <point x="125" y="44"/>
      <point x="178" y="20"/>
      <point x="265" y="20" type="curve" smooth="yes"/>
      <point x="380" y="20"/>
      <point x="467" y="95"/>
      <point x="467" y="217" type="curve" smooth="yes"/>
      <point x="467" y="338"/>
      <point x="378" y="397"/>
      <point x="237" y="397" type="curve" smooth="yes"/>
      <point x="230" y="397" type="line"/>
      <point x="227" y="426" type="line"/>
      <point x="419" y="680" type="line"/>
      <point x="90" y="680" type="line"/>
    </contour>
  </outline>
</glyph>
<glyph name="four" format="2">
  <advance width="550"/>
  <unicode hex="0034"/>
  <outline>
    <contour>
      <point x="328" y="708" type="line"/>
      <point x="360" y="708" type="line"/>
      <point x="97" y="213" type="line"/>
      <point x="392" y="214" type="line"/>
      <point x="392" y="484" type="line"/>
      <point x="424" y="484" type="line"/>
      <point x="424" y="214" type="line"/>
      <point x="512" y="214" type="line"/>
      <point x="512" y="186" type="line"/>
      <point x="424" y="186" type="line"/>
      <point x="424" y="0" type="line"/>
      <point x="392" y="0" type="line"/>
      <point x="392" y="186" type="line"/>
      <point x="64" y="186" type="line"/>
      <point x="64" y="213" type="line"/>
    </contour>
  </outline>
</glyph>
<glyph name="five" format="2">
  <advance width="550"/>
  <unicode hex="0035"/>
  <outline>
    <contour>
      <point x="112" y="708" type="line"/>
      <point x="443" y="708" type="line"/>
      <point x="443" y="680" type="line"/>
      <point x="141" y="680" type="line"/>
      <point x="126" y="376" type="line"/>
      <point x="144" y="398"/>
      <point x="198" y="435"/>
      <point x="268" y="435" type="curve" smooth="yes"/>
      <point x="380" y="435"/>
      <point x="486" y="374"/>
      <point x="486" y="213" type="curve" smooth="yes"/>
      <point x="486" y="60"/>
      <point x="376" y="-8"/>
      <point x="248" y="-8" type="curve" smooth="yes"/>
      <point x="162" y="-8"/>
      <point x="118" y="8"/>
      <point x="60" y="51" type="curve"/>
      <point x="76" y="77" type="line"/>
      <point x="130" y="32"/>
      <point x="183" y="20"/>
      <point x="248" y="20" type="curve" smooth="yes"/>
      <point x="355" y="20"/>
      <point x="454" y="83"/>
      <point x="454" y="208" type="curve" smooth="yes"/>
      <point x="454" y="350"/>
      <point x="365" y="407"/>
      <point x="263" y="407" type="curve" smooth="yes"/>
      <point x="199" y="407"/>
      <point x="157" y="384"/>
      <point x="120" y="348" type="curve"/>
      <point x="96" y="348" type="line"/>
    </contour>
  </outline>
</glyph>
<glyph name="six" format="2">
  <advance width="550"/>
  <unicode hex="0036"/>
  <outline>
    <contour>
      <point x="322" y="716" type="curve" smooth="yes"/>
      <point x="360" y="716"/>
      <point x="396" y="715"/>
      <point x="444" y="697" type="curve"/>
      <point x="437" y="669" type="line"/>
      <point x="388" y="684"/>
      <point x="369" y="688"/>
      <point x="316" y="688" type="curve" smooth="yes"/>
      <point x="172" y="688"/>
      <point x="93" y="582"/>
      <point x="93" y="311" type="curve"/>
      <point x="102" y="359"/>
      <point x="170" y="439"/>
      <point x="268" y="439" type="curve" smooth="yes"/>
      <point x="399" y="439"/>
      <point x="486" y="372"/>
      <point x="486" y="215" type="curve" smooth="yes"/>
      <point x="486" y="76"/>
      <point x="406" y="-8"/>
      <point x="272" y="-8" type="curve" smooth="yes"/>
      <point x="117" y="-8"/>
      <point x="64" y="84"/>
      <point x="64" y="312" type="curve" smooth="yes"/>
      <point x="64" y="601"/>
      <point x="153" y="716"/>
    </contour>
    <contour>
      <point x="268" y="411" type="curve" smooth="yes"/>
      <point x="174" y="411"/>
      <point x="98" y="326"/>
      <point x="98" y="225" type="curve" smooth="yes"/>
      <point x="98" y="107"/>
      <point x="143" y="20"/>
      <point x="271" y="20" type="curve" smooth="yes"/>
      <point x="398" y="20"/>
      <point x="454" y="99"/>
      <point x="454" y="215" type="curve" smooth="yes"/>
      <point x="454" y="348"/>
      <point x="388" y="411"/>
    </contour>
  </outline>
</glyph>
<glyph name="eight" format="2">
  <advance width="550"/>
  <unicode hex="0038"/>
  <outline>
    <contour>
      <point x="275" y="716" type="curve" smooth="yes"/>
      <point x="391" y="716"/>
      <point x="471" y="657"/>
      <point x="471" y="529" type="curve" smooth="yes"/>
      <point x="471" y="447"/>
      <point x="424" y="392"/>
      <point x="359" y="369" type="curve"/>
      <point x="415" y="354"/>
      <point x="486" y="296"/>
      <point x="486" y="191" type="curve" smooth="yes"/>
      <point x="486" y="58"/>
      <point x="410" y="-8"/>
      <point x="275" y="-8" type="curve" smooth="yes"/>
      <point x="147" y="-8"/>
      <point x="64" y="58"/>
      <point x="64" y="188" type="curve" smooth="yes"/>
      <point x="64" y="295"/>
      <point x="134" y="348"/>
      <point x="189" y="369" type="curve"/>
      <point x="130" y="389"/>
      <point x="79" y="431"/>
      <point x="79" y="529" type="curve" smooth="yes"/>
      <point x="79" y="659"/>
      <point x="159" y="716"/>
    </contour>
    <contour>
      <point x="275" y="688" type="curve" smooth="yes"/>
      <point x="171" y="688"/>
      <point x="111" y="631"/>
      <point x="111" y="527" type="curve" smooth="yes"/>
      <point x="111" y="437"/>
      <point x="173" y="385"/>
      <point x="275" y="385" type="curve" smooth="yes"/>
      <point x="380" y="385"/>
      <point x="439" y="436"/>
      <point x="439" y="527" type="curve" smooth="yes"/>
      <point x="439" y="632"/>
      <point x="382" y="688"/>
    </contour>
    <contour>
      <point x="275" y="357" type="curve" smooth="yes"/>
      <point x="164" y="357"/>
      <point x="96" y="282"/>
      <point x="96" y="184" type="curve" smooth="yes"/>
      <point x="96" y="88"/>
      <point x="163" y="20"/>
      <point x="275" y="20" type="curve" smooth="yes"/>
      <point x="392" y="20"/>
      <point x="454" y="86"/>
      <point x="454" y="189" type="curve" smooth="yes"/>
      <point x="454" y="283"/>
      <point x="392" y="357"/>
    </contour>
  </outline>
</glyph>
<glyph name="nine" format="2">
  <advance width="550"/>
  <unicode hex="0039"/>
  <outline>
    <contour>
      <point x="278" y="716" type="curve" smooth="yes"/>
      <point x="409" y="716"/>
      <point x="486" y="625"/>
      <point x="486" y="415" type="curve" smooth="yes"/>
      <point x="486" y="100"/>
      <point x="391" y="-8"/>
      <point x="226" y="-8" type="curve" smooth="yes"/>
      <point x="162" y="-8"/>
      <point x="133" y="3"/>
      <point x="95" y="22" type="curve"/>
      <point x="102" y="51" type="line"/>
      <point x="128" y="35"/>
      <point x="169" y="20"/>
      <point x="232" y="20" type="curve" smooth="yes"/>
      <point x="362" y="20"/>
      <point x="457" y="122"/>
      <point x="457" y="393" type="curve"/>
      <point x="447" y="329"/>
      <point x="380" y="261"/>
      <point x="282" y="261" type="curve" smooth="yes"/>
      <point x="151" y="261"/>
      <point x="64" y="332"/>
      <point x="64" y="489" type="curve" smooth="yes"/>
      <point x="64" y="628"/>
      <point x="144" y="716"/>
    </contour>
    <contour>
      <point x="279" y="688" type="curve" smooth="yes"/>
      <point x="152" y="688"/>
      <point x="96" y="605"/>
      <point x="96" y="489" type="curve" smooth="yes"/>
      <point x="96" y="356"/>
      <point x="162" y="289"/>
      <point x="282" y="289" type="curve" smooth="yes"/>
      <point x="376" y="289"/>
      <point x="452" y="364"/>
      <point x="452" y="479" type="curve" smooth="yes"/>
      <point x="452" y="598"/>
      <point x="391" y="688"/>
    </contour>
  </outline>
</glyph>
<glyph name="A" format="2">
  <advance width="557"/>
  <unicode hex="0041"/>
  <anchor x="320" y="881" name="AccentCenter"/>
  <outline>
    <contour>
      <point x="267" y="708" type="line"/>
      <point x="319" y="708" type="line"/>
      <point x="540" y="0" type="line"/>
      <point x="504" y="0" type="line"/>
      <point x="436" y="214" type="line"/>
      <point x="129" y="214" type="line"/>
      <point x="55" y="0" type="line"/>
      <point x="20" y="0" type="line"/>
    </contour>
    <contour>
      <point x="284" y="678" type="line"/>
      <point x="141" y="242" type="line"/>
      <point x="428" y="242" type="line"/>
      <point x="301" y="678" type="line"/>
    </contour>
  </outline>
</glyph>
<glyph name="B" format="2">
  <advance width="594"/>
  <unicode hex="0042"/>
  <outline>
    <contour>
      <point x="84" y="708" type="line"/>
      <point x="308" y="708" type="line" smooth="yes"/>
      <point x="433" y="708"/>
      <point x="497" y="641"/>
      <point x="497" y="534" type="curve" smooth="yes"/>
      <point x="497" y="461"/>
      <point x="471" y="397"/>
      <point x="386" y="375" type="curve"/>
      <point x="480" y="361"/>
      <point x="530" y="293"/>
      <point x="530" y="202" type="curve" smooth="yes"/>
      <point x="530" y="79"/>
      <point x="451" y="0"/>
      <point x="324" y="0" type="curve" smooth="yes"/>
      <point x="84" y="0" type="line"/>
    </contour>
    <contour>
      <point x="116" y="680" type="line"/>
      <point x="116" y="387" type="line"/>
      <point x="337" y="387" type="line" smooth="yes"/>
      <point x="427" y="387"/>
      <point x="468" y="449"/>
      <point x="468" y="534" type="curve" smooth="yes"/>
      <point x="468" y="610"/>
      <point x="426" y="680"/>
      <point x="315" y="680" type="curve" smooth="yes"/>
    </contour>
    <contour>
      <point x="116" y="362" type="line"/>
      <point x="116" y="28" type="line"/>
      <point x="335" y="28" type="line" smooth="yes"/>
      <point x="439" y="28"/>
      <point x="498" y="104"/>
      <point x="498" y="202" type="curve" smooth="yes"/>
      <point x="498" y="294"/>
      <point x="440" y="362"/>
      <point x="331" y="362" type="curve" smooth="yes"/>
    </contour>
  </outline>
</glyph>
<glyph name="E" format="2">
  <advance width="522"/>
  <unicode hex="0045"/>
  <anchor x="302" y="880" name="AccentCenter"/>
  <outline>
    <contour>
      <point x="84" y="708" type="line"/>
      <point x="466" y="708" type="line"/>
      <point x="466" y="680" type="line"/>
      <point x="116" y="680" type="line"/>
      <point x="116" y="381" type="line"/>
      <point x="388" y="381" type="line"/>
      <point x="388" y="353" type="line"/>
      <point x="116" y="353" type="line"/>
      <point x="116" y="28" type="line"/>
      <point x="466" y="28" type="line"/>
      <point x="466" y="0" type="line"/>
      <point x="84" y="0" type="line"/>
    </contour>
  </outline>
</glyph>
<glyph name="G" format="2">
  <advance width="620"/>
  <unicode hex="0047"/>
  <outline>
    <contour>
      <point x="346" y="716" type="curve" smooth="yes"/>
      <point x="435" y="716"/>
      <point x="499" y="687"/>
      <point x="550" y="644" type="curve"/>
      <point x="534" y="622" type="line"/>
      <point x="482" y="663"/>
      <point x="430" y="688"/>
      <point x="348" y="688" type="curve" smooth="yes"/>
      <point x="184" y="688"/>
      <point x="96" y="544"/>
      <point x="96" y="352" type="curve" smooth="yes"/>
      <point x="96" y="231"/>
      <point x="136" y="20"/>
      <point x="355" y="20" type="curve" smooth="yes"/>
      <point x="395" y="20"/>
      <point x="458" y="29"/>
      <point x="510" y="45" type="curve"/>
      <point x="510" y="348" type="line"/>
      <point x="288" y="348" type="line"/>
      <point x="288" y="376" type="line"/>
      <point x="542" y="376" type="line"/>
      <point x="542" y="24" type="line"/>
      <point x="485" y="7"/>
      <point x="424" y="-8"/>
      <point x="355" y="-8" type="curve" smooth="yes"/>
      <point x="118" y="-8"/>
      <point x="64" y="212"/>
      <point x="64" y="352" type="curve" smooth="yes"/>
      <point x="64" y="559"/>
      <point x="162" y="716"/>
    </contour>
  </outline>
</glyph>
<glyph name="M" format="2">
  <advance width="705"/>
  <unicode hex="004D"/>
  <outline>
    <contour>
      <point x="100.959" y="708" type="line"/>
      <point x="136.4" y="708" type="line"/>
      <point x="359.8" y="217.446" type="line"/>
      <point x="568.4" y="708" type="line"/>
      <point x="604.17" y="707.999" type="line"/>
      <point x="604.17" y="0" type="line"/>
      <point x="572.413" y="0" type="line"/>
      <point x="572.413" y="647.356" type="line"/>
      <point x="380.513" y="192.178" type="line"/>
      <point x="337.487" y="192.178" type="line"/>
      <point x="132.559" y="636.6" type="line"/>
      <point x="132.559" y="0" type="line"/>
      <point x="100.959" y="0" type="line"/>
    </contour>
  </outline>
</glyph>
<glyph name="O" format="2">
  <advance width="632"/>
  <unicode hex="004F"/>
  <anchor x="326" y="881" name="AccentCenter"/>
  <outline>
    <contour>
      <point x="317.902" y="715.991" type="curve" smooth="yes"/>
      <point x="478.779" y="715.797"/>
      <point x="568.004" y="579.35"/>
      <point x="568.004" y="353.614" type="curve" smooth="yes"/>
      <point x="568.004" y="127.877"/>
      <point x="478.526" y="-8.0393"/>
      <point x="317.902" y="-8.0239" type="curve" smooth="yes"/>
      <point x="155.972" y="-8.0084"/>
      <point x="64" y="128"/>
      <point x="64" y="354" type="curve" smooth="yes"/>
      <point x="64" y="579"/>
      <point x="155.73" y="716.187"/>
    </contour>
    <contour>
      <point x="317.902" y="687.895" type="curve" smooth="yes"/>
      <point x="171.615" y="687.895"/>
      <point x="96" y="552"/>
      <point x="96" y="354" type="curve" smooth="yes"/>
      <point x="96" y="155"/>
      <point x="171.764" y="20.0528"/>
      <point x="317.901" y="19.8058" type="curve" smooth="yes"/>
      <point x="462.761" y="19.561"/>
      <point x="535.862" y="150.56"/>
      <point x="535.862" y="353.614" type="curve" smooth="yes"/>
      <point x="535.862" y="556.667"/>
      <point x="462.924" y="687.895"/>
    </contour>
  </outline>
</glyph>
<glyph name="Q" format="2">
  <advance width="652"/>
  <unicode hex="0051"/>
  <outline>
    <contour>
      <point x="332" y="688" type="curve" smooth="yes"/>
      <point x="186" y="688"/>
      <point x="96" y="560"/>
      <point x="96" y="355" type="curve" smooth="yes"/>
      <point x="96" y="143"/>
      <point x="179" y="17"/>
      <point x="325" y="17" type="curve" smooth="yes"/>
      <point x="472" y="17"/>
      <point x="556" y="144"/>
      <point x="556" y="355" type="curve" smooth="yes"/>
      <point x="556" y="559"/>
      <point x="479" y="688"/>
    </contour>
    <contour>
      <point x="332" y="716" type="curve" smooth="yes"/>
      <point x="490" y="716"/>
      <point x="588" y="583"/>
      <point x="588" y="355" type="curve" smooth="yes"/>
      <point x="588" y="136"/>
      <point x="503" y="0"/>
      <point x="339" y="-11" type="curve"/>
      <point x="345" y="-128"/>
      <point x="411" y="-153"/>
      <point x="494" y="-153" type="curve" smooth="yes"/>
      <point x="555" y="-153" type="line"/>
      <point x="557" y="-180" type="line"/>
      <point x="541" y="-182"/>
      <point x="507" y="-184"/>
      <point x="479" y="-184" type="curve" smooth="yes"/>
      <point x="373" y="-184"/>
      <point x="315" y="-128"/>
      <point x="307" y="-11" type="curve"/>
      <point x="152" y="-2"/>
      <point x="64" y="127"/>
      <point x="64" y="355" type="curve" smooth="yes"/>
      <point x="64" y="583"/>
      <point x="168" y="716"/>
    </contour>
  </outline>
</glyph>
<glyph name="T" format="2">
  <advance width="567"/>
  <unicode hex="0054"/>
  <outline>
    <contour>
      <point x="55.8" y="708" type="line"/>
      <point x="510.2" y="708" type="line"/>
      <point x="510.2" y="680.418" type="line"/>
      <point x="302.09" y="680.418" type="line"/>
      <point x="302.09" y="0" type="line"/>
      <point x="269.91" y="0" type="line"/>
      <point x="269.91" y="680.418" type="line"/>
      <point x="55.8" y="680.418" type="line"/>
    </contour>
  </outline>
</glyph>
<glyph name="W" format="2">
  <advance width="770"/>
  <unicode hex="0057"/>
  <outline>
    <contour>
      <point x="40" y="708" type="line"/>
      <point x="75" y="708" type="line"/>
      <point x="226" y="31" type="line"/>
      <point x="376" y="708" type="line"/>
      <point x="402" y="708" type="line"/>
      <point x="545" y="31" type="line"/>
      <point x="695" y="708" type="line"/>
      <point x="730" y="708" type="line"/>
      <point x="565" y="0" type="line"/>
      <point x="522" y="0" type="line"/>
      <point x="389" y="628" type="line"/>
      <point x="252" y="0" type="line"/>
      <point x="205" y="0" type="line"/>
    </contour>
  </outline>
</glyph>
<glyph name="X" format="2">
  <advance width="564"/>
  <unicode hex="0058"/>
  <outline>
    <contour>
      <point x="40" y="708" type="line"/>
      <point x="82" y="708" type="line"/>
      <point x="283" y="381" type="line"/>
      <point x="484" y="708" type="line"/>
      <point x="524" y="708" type="line"/>
      <point x="302" y="356" type="line"/>
      <point x="524" y="0" type="line"/>
      <point x="484" y="0" type="line"/>
      <point x="283" y="332" type="line"/>
      <point x="82" y="0" type="line"/>
      <point x="40" y="0" type="line"/>
      <point x="265" y="356" type="line"/>
    </contour>
  </outline>
</glyph>
<glyph name="bracketright" format="2">
  <advance width="309"/>
  <unicode hex="005D"/>
  <outline>
    <contour>
      <point x="64" y="819" type="line"/>
      <point x="245" y="819" type="line"/>
      <point x="245" y="-64" type="line"/>
      <point x="64" y="-64" type="line"/>
      <point x="64" y="-36" type="line"/>
      <point x="213" y="-36" type="line"/>
      <point x="213" y="791" type="line"/>
      <point x="64" y="791" type="line"/>
    </contour>
  </outline>
</glyph>
<glyph name="a" format="2">
  <advance width="506"/>
  <unicode hex="0061"/>
  <anchor x="246" y="687" name="AccentCenter"/>
  <anchor x="236" y="687" name="Ring"/>
  <outline>
    <contour>
      <point x="235" y="528" type="curve" smooth="yes"/>
      <point x="337" y="528"/>
      <point x="407" y="477"/>
      <point x="407" y="355" type="curve" smooth="yes"/>
      <point x="407" y="28" type="line"/>
      <point x="478" y="28" type="line"/>
      <point x="478" y="0" type="line"/>
      <point x="375" y="0" type="line"/>
      <point x="375" y="84" type="line"/>
      <point x="349" y="44"/>
      <point x="298" y="-8"/>
      <point x="215" y="-8" type="curve" smooth="yes"/>
      <point x="117" y="-8"/>
      <point x="56" y="38"/>
      <point x="56" y="140" type="curve" smooth="yes"/>
      <point x="56" y="249"/>
      <point x="130" y="292"/>
      <point x="232" y="292" type="curve" smooth="yes"/>
      <point x="375" y="292" type="line"/>
      <point x="375" y="369" type="line" smooth="yes"/>
      <point x="375" y="457"/>
      <point x="320" y="500"/>
      <point x="235" y="500" type="curve" smooth="yes"/>
      <point x="191" y="500"/>
      <point x="141" y="488"/>
      <point x="106" y="465" type="curve"/>
      <point x="96" y="491" type="line"/>
      <point x="137" y="515"/>
      <point x="182" y="528"/>
    </contour>
    <contour>
      <point x="375" y="264" type="line"/>
      <point x="229" y="264" type="line" smooth="yes"/>
      <point x="131" y="264"/>
      <point x="88" y="224"/>
      <point x="88" y="140" type="curve" smooth="yes"/>
      <point x="88" y="51"/>
      <point x="140" y="20"/>
      <point x="213" y="20" type="curve" smooth="yes"/>
      <point x="296" y="20"/>
      <point x="350" y="78"/>
      <point x="375" y="129" type="curve"/>
    </contour>
  </outline>
</glyph>
<glyph name="c" format="2">
  <advance width="487"/>
  <unicode hex="0063"/>
  <outline>
    <contour>
      <point x="274" y="528" type="curve" smooth="yes"/>
      <point x="351" y="528"/>
      <point x="393" y="499"/>
      <point x="436" y="460" type="curve"/>
      <point x="418" y="438" type="line"/>
      <point x="381" y="473"/>
      <point x="338" y="500"/>
      <point x="276" y="500" type="curve" smooth="yes"/>
      <point x="158" y="500"/>
      <point x="88" y="406"/>
      <point x="88" y="260" type="curve" smooth="yes"/>
      <point x="88" y="122"/>
      <point x="153" y="20"/>
      <point x="274" y="20" type="curve" smooth="yes"/>
      <point x="347" y="20"/>
      <point x="398" y="56"/>
      <point x="438" y="89" type="curve"/>
      <point x="455" y="65" type="line"/>
      <point x="404" y="25"/>
      <point x="352" y="-8"/>
      <point x="273" y="-8" type="curve" smooth="yes"/>
      <point x="134" y="-8"/>
      <point x="56" y="104"/>
      <point x="56" y="260" type="curve" smooth="yes"/>
      <point x="56" y="421"/>
      <point x="140" y="528"/>
    </contour>
  </outline>
</glyph>
<glyph name="e" format="2">
  <advance width="524"/>
  <unicode hex="0065"/>
  <anchor x="274" y="687" name="AccentCenter"/>
  <outline>
    <contour>
      <point x="268" y="528" type="curve" smooth="yes"/>
      <point x="381" y="528"/>
      <point x="459" y="440"/>
      <point x="459" y="302" type="curve" smooth="yes"/>
      <point x="459" y="287"/>
      <point x="456.229" y="262.831"/>
      <point x="455" y="257" type="curve"/>
      <point x="98" y="257" type="line"/>
      <point x="98" y="117"/>
      <point x="169" y="20"/>
      <point x="290" y="20" type="curve" smooth="yes"/>
      <point x="359" y="20"/>
      <point x="400" y="39"/>
      <point x="447" y="60" type="curve"/>
      <point x="457" y="31" type="line"/>
      <point x="413" y="16"/>
      <point x="381" y="-8"/>
      <point x="288" y="-8" type="curve" smooth="yes"/>
      <point x="151" y="-8"/>
      <point x="64" y="91"/>
      <point x="64" y="268" type="curve" smooth="yes"/>
      <point x="64" y="433"/>
      <point x="142" y="528"/>
    </contour>
    <contour>
      <point x="268" y="500" type="curve" smooth="yes"/>
      <point x="166" y="500"/>
      <point x="98" y="422"/>
      <point x="98" y="283" type="curve"/>
      <point x="427" y="283" type="line"/>
      <point x="427" y="322" type="line" smooth="yes"/>
      <point x="427" y="425"/>
      <point x="359" y="500"/>
    </contour>
  </outline>
</glyph>
<glyph name="i" format="2">
  <advance width="286"/>
  <unicode hex="0069"/>
  <outline>
    <contour>
      <point x="144.822" y="731.063" type="curve" smooth="yes"/>
      <point x="166.757" y="731.063"/>
      <point x="183.459" y="713.885"/>
      <point x="183.459" y="692.426" type="curve" smooth="yes"/>
      <point x="183.459" y="670.333"/>
      <point x="166.757" y="653.789"/>
      <point x="144.822" y="653.789" type="curve" smooth="yes"/>
      <point x="122.888" y="653.789"/>
      <point x="106.186" y="670.333"/>
      <point x="106.186" y="692.426" type="curve" smooth="yes"/>
      <point x="106.186" y="713.885"/>
      <point x="122.888" y="731.063"/>
    </contour>
    <component base="dotlessi" xOffset="-3.6"/>
  </outline>
</glyph>
<glyph name="k" format="2">
  <advance width="471"/>
  <unicode hex="006B"/>
  <outline>
    <contour>
      <point x="100" y="708" type="line"/>
      <point x="132" y="708" type="line"/>
      <point x="132" y="291" type="line"/>
      <point x="155" y="291" type="line"/>
      <point x="393" y="521" type="line"/>
      <point x="435" y="521" type="line"/>
      <point x="183" y="276" type="line"/>
      <point x="431" y="0" type="line"/>
      <point x="389" y="0" type="line"/>
      <point x="155" y="263" type="line"/>
      <point x="132" y="263" type="line"/>
      <point x="132" y="0" type="line"/>
      <point x="100" y="0" type="line"/>
    </contour>
  </outline>
</glyph>
<glyph name="n" format="2">
  <advance width="560.9979999999999"/>
  <unicode hex="006E"/>
  <anchor x="274.4" y="687" name="AccentCenter"/>
  <outline>
    <contour>
      <point x="100" y="520" type="line"/>
      <point x="120" y="520" type="line"/>
      <point x="132" y="434" type="line"/>
      <point x="162" y="494"/>
      <point x="234" y="528"/>
      <point x="290" y="528" type="curve" smooth="yes"/>
      <point x="392" y="528"/>
      <point x="461" y="481"/>
      <point x="461" y="352" type="curve" smooth="yes"/>
      <point x="461" y="0" type="line"/>
      <point x="429" y="0" type="line"/>
      <point x="429" y="352" type="line" smooth="yes"/>
      <point x="429" y="454"/>
      <point x="374" y="500"/>
      <point x="287" y="500" type="curve" smooth="yes"/>
      <point x="211" y="500"/>
      <point x="156" y="438"/>
      <point x="132" y="401" type="curve"/>
      <point x="132" y="0" type="line"/>
      <point x="100" y="0" type="line"/>
    </contour>
  </outline>
</glyph>
<glyph name="p" format="2">
  <advance width="577"/>
  <unicode hex="0070"/>
  <outline>
    <contour>
      <point x="296.133" y="500.217" type="curve" smooth="yes"/>
      <point x="214.989" y="500.217"/>
      <point x="159.725" y="441.934"/>
      <point x="132.197" y="397.6" type="curve"/>
      <point x="132.193" y="126.579" type="line"/>
      <point x="174.012" y="56.4803"/>
      <point x="216" y="20"/>
      <point x="300" y="20" type="curve" smooth="yes"/>
      <point x="411" y="20"/>
      <point x="480.79" y="117.79"/>
      <point x="480.79" y="264.8" type="curve" smooth="yes"/>
      <point x="480.79" y="421.128"/>
      <point x="406.618" y="500.217"/>
    </contour>
    <contour>
      <point x="100" y="520" type="line"/>
      <point x="123.247" y="520" type="line"/>
      <point x="132.197" y="436.247" type="line"/>
      <point x="173.407" y="491.69"/>
      <point x="219.861" y="528"/>
      <point x="306.933" y="528" type="curve" smooth="yes"/>
      <point x="432.825" y="528"/>
      <point x="513" y="437"/>
      <point x="513" y="261" type="curve" smooth="yes"/>
      <point x="513" y="98"/>
      <point x="423.984" y="-8"/>
      <point x="303" y="-8" type="curve" smooth="yes"/>
      <point x="258.092" y="-8"/>
      <point x="181" y="8"/>
      <point x="132" y="79" type="curve"/>
      <point x="132" y="-192" type="line"/>
      <point x="100" y="-192" type="line"/>
    </contour>
  </outline>
</glyph>
<glyph name="r" format="2">
  <advance width="387"/>
  <unicode hex="0072"/>
  <outline>
    <contour>
      <point x="100" y="520" type="line"/>
      <point x="125" y="520" type="line"/>
      <point x="132" y="431" type="line"/>
      <point x="148" y="481"/>
      <point x="192" y="528"/>
      <point x="263" y="528" type="curve" smooth="yes"/>
      <point x="290" y="528"/>
      <point x="308" y="527"/>
      <point x="331" y="524" type="curve"/>
      <point x="327" y="498" type="line"/>
      <point x="264" y="498" type="line" smooth="yes"/>
      <point x="191" y="498"/>
      <point x="153" y="438"/>
      <point x="132" y="383" type="curve"/>
      <point x="132" y="0" type="line"/>
      <point x="100" y="0" type="line"/>
    </contour>
  </outline>
</glyph>
<glyph name="s" format="2">
  <advance width="492"/>
  <unicode hex="0073"/>
  <outline>
    <contour>
      <point x="256" y="528" type="curve" smooth="yes"/>
      <point x="321" y="528"/>
      <point x="362" y="510"/>
      <point x="423" y="467" type="curve"/>
      <point x="404" y="445" type="line"/>
      <point x="352" y="486"/>
      <point x="305" y="500"/>
      <point x="256" y="500" type="curve" smooth="yes"/>
      <point x="168" y="500"/>
      <point x="108" y="459"/>
      <point x="108" y="393" type="curve" smooth="yes"/>
      <point x="108" y="338"/>
      <point x="146" y="311"/>
      <point x="214" y="292" type="curve" smooth="yes"/>
      <point x="294" y="270" type="line" smooth="yes"/>
      <point x="360" y="253"/>
      <point x="438" y="216"/>
      <point x="438" y="136" type="curve" smooth="yes"/>
      <point x="438" y="31"/>
      <point x="355" y="-8"/>
      <point x="252" y="-8" type="curve" smooth="yes"/>
      <point x="167" y="-8"/>
      <point x="109" y="16"/>
      <point x="56" y="63" type="curve"/>
      <point x="74" y="86" type="line"/>
      <point x="119" y="47"/>
      <point x="184" y="20"/>
      <point x="250" y="20" type="curve" smooth="yes"/>
      <point x="340" y="20"/>
      <point x="406" y="47"/>
      <point x="406" y="136" type="curve" smooth="yes"/>
      <point x="406" y="187"/>
      <point x="356" y="221"/>
      <point x="286" y="240" type="curve" smooth="yes"/>
      <point x="206" y="262" type="line" smooth="yes"/>
      <point x="153" y="277"/>
      <point x="79" y="310"/>
      <point x="78" y="392" type="curve" smooth="yes"/>
      <point x="77" y="465"/>
      <point x="141" y="528"/>
    </contour>
  </outline>
</glyph>
<glyph name="bar" format="2">
  <advance width="240"/>
  <unicode hex="007C"/>
  <outline>
    <contour>
      <point x="72.2" y="819" type="line"/>
      <point x="123.4" y="819" type="line"/>
      <point x="123.4" y="-66" type="line"/>
      <point x="72.2" y="-66" type="line"/>
    </contour>
  </outline>
</glyph>
<glyph name="sterling" format="2">
  <advance width="572"/>
  <unicode hex="00A3"/>
  <outline>
    <contour>
      <point x="354" y="716" type="curve" smooth="yes"/>
      <point x="444" y="716"/>
      <point x="481" y="689"/>
      <point x="516" y="665" type="curve"/>
      <point x="506" y="636" type="line"/>
      <point x="468" y="661"/>
      <point x="433" y="688"/>
      <point x="351" y="688" type="curve" smooth="yes"/>
      <point x="251" y="688"/>
      <point x="180" y="625"/>
      <point x="180" y="532" type="curve" smooth="yes"/>
      <point x="180" y="464"/>
      <point x="202" y="425"/>
      <point x="231" y="358" type="curve"/>
      <point x="389" y="358" type="line"/>
      <point x="389" y="330" type="line"/>
      <point x="241" y="330" type="line"/>
      <point x="250" y="304"/>
      <point x="255" y="274"/>
      <point x="255" y="243" type="curve" smooth="yes"/>
      <point x="255" y="117"/>
      <point x="181" y="56"/>
      <point x="108" y="28" type="curve"/>
      <point x="516" y="28" type="line"/>
      <point x="516" y="0" type="line"/>
      <point x="77" y="0" type="line"/>
      <point x="76.8" y="42.4" type="line"/>
      <point x="175" y="78"/>
      <point x="223" y="132"/>
      <point x="223" y="244" type="curve" smooth="yes"/>
      <point x="223" y="274"/>
      <point x="219" y="308"/>
      <point x="210" y="330" type="curve"/>
      <point x="48" y="330" type="line"/>
      <point x="48" y="358" type="line"/>
      <point x="200" y="358" type="line"/>
      <point x="174" y="418"/>
      <point x="150" y="451"/>
      <point x="150" y="529" type="curve" smooth="yes"/>
      <point x="150" y="643"/>
      <point x="235" y="716"/>
    </contour>
  </outline>
</glyph>
<glyph name="copyright" format="2">
  <advance width="853"/>
  <unicode hex="00A9"/>
  <outline>
    <contour>
      <point x="426.4" y="724.8" type="curve" smooth="yes"/>
      <point x="223.2" y="724.8"/>
      <point x="57.6" y="559.2"/>
      <point x="57.6" y="356" type="curve" smooth="yes"/>
      <point x="57.6" y="151.8"/>
      <point x="223.2" y="-12.8"/>
      <point x="426.4" y="-12.8" type="curve" smooth="yes"/>
      <point x="630.6" y="-12.8"/>
      <point x="795.2" y="151.8"/>
      <point x="795.2" y="356" type="curve" smooth="yes"/>
      <point x="795.2" y="559.2"/>
      <point x="630.6" y="724.8"/>
    </contour>
    <contour>
      <point x="426.4" y="694.2" type="curve" smooth="yes"/>
      <point x="611.6" y="694.2"/>
      <point x="760.2" y="541.2"/>
      <point x="760.2" y="356" type="curve" smooth="yes"/>
      <point x="760.2" y="170.8"/>
      <point x="611.6" y="17.8"/>
      <point x="426.4" y="17.8" type="curve" smooth="yes"/>
      <point x="241.2" y="17.8"/>
      <point x="92.6" y="170.8"/>
      <point x="92.6" y="356" type="curve" smooth="yes"/>
      <point x="92.6" y="541.2"/>
      <point x="241.2" y="694.2"/>
    </contour>
    <contour>
      <point x="420.8" y="594" type="curve" smooth="yes"/>
      <point x="471.8" y="594"/>
      <point x="512.2" y="582.8"/>
      <point x="574.4" y="524.4" type="curve"/>
      <point x="563.2" y="509.6" type="line"/>
      <point x="507" y="561.4"/>
      <point x="473.8" y="574.8"/>
      <point x="414" y="574.8" type="curve" smooth="yes"/>
      <point x="305.6" y="574.8"/>
      <point x="243.2" y="507.2"/>
      <point x="243.2" y="355.2" type="curve" smooth="yes"/>
      <point x="243.2" y="203.6"/>
      <point x="305.6" y="138.4"/>
      <point x="410.8" y="138.4" type="curve" smooth="yes"/>
      <point x="478.6" y="138.4"/>
      <point x="515.4" y="146.4"/>
      <point x="565.6" y="200.4" type="curve"/>
      <point x="574.2" y="184.4" type="line"/>
      <point x="525.4" y="133.2"/>
      <point x="474.8" y="120"/>
      <point x="418.2" y="120" type="curve" smooth="yes"/>
      <point x="304.2" y="120"/>
      <point x="229.2" y="204.4"/>
      <point x="229.2" y="352.8" type="curve" smooth="yes"/>
      <point x="229.2" y="511"/>
      <point x="298.2" y="594"/>
    </contour>
  </outline>
</glyph>
<glyph name="mu" format="2">
  <advance width="558.0350386381265"/>
  <unicode hex="00B5"/>
  <outline>
    <contour>
      <point x="100" y="518" type="line"/>
      <point x="132" y="518" type="line"/>
      <point x="132" y="110" type="line"/>
      <point x="147" y="78"/>
      <point x="188" y="16"/>
      <point x="274" y="16" type="curve" smooth="yes"/>
      <point x="348" y="16"/>
      <point x="427" y="65"/>
      <point x="427" y="226" type="curve" smooth="yes"/>
      <point x="428" y="520" type="line"/>
      <point x="459" y="520" type="line"/>
      <point x="457" y="66" type="line" smooth="yes"/>
      <point x="457" y="34"/>
      <point x="458" y="16"/>
      <point x="476" y="16" type="curve" smooth="yes"/>
      <point x="498" y="16" type="line"/>
      <point x="498" y="-2" type="line"/>
      <point x="500" y="-3"/>
      <point x="489" y="-8"/>
      <point x="474" y="-8" type="curve" smooth="yes"/>
      <point x="434" y="-8"/>
      <point x="427" y="6"/>
      <point x="427" y="101" type="curve"/>
      <point x="419" y="61"/>
      <point x="369" y="-8"/>
      <point x="273" y="-8" type="curve" smooth="yes"/>
      <point x="192" y="-8"/>
      <point x="162" y="17"/>
      <point x="131" y="58" type="curve"/>
      <point x="129" y="46"/>
      <point x="131" y="45"/>
      <point x="131" y="33" type="curve" smooth="yes"/>
      <point x="131" y="-190" type="line"/>
      <point x="100" y="-190" type="line"/>
    </contour>
  </outline>
</glyph>
<glyph name="Thorn" format="2">
  <advance width="519"/>
  <unicode hex="00DE"/>
  <outline>
    <contour>
      <point x="99.2" y="708" type="line"/>
      <point x="112" y="708" type="line"/>
      <point x="112" y="556.8" type="line"/>
      <point x="267.6" y="556.8" type="line" smooth="yes"/>
      <point x="357.4" y="556.8"/>
      <point x="453.6" y="479.6"/>
      <point x="453.6" y="353.6" type="curve" smooth="yes"/>
      <point x="453.6" y="236"/>
      <point x="348.8" y="160.6"/>
      <point x="261.6" y="160.6" type="curve" smooth="yes"/>
      <point x="112" y="160.6" type="line"/>
      <point x="112" y="0" type="line"/>
      <point x="99.2" y="0" type="line"/>
    </contour>
    <contour>
      <point x="112" y="538.4" type="line"/>
      <point x="112" y="182.2" type="line"/>
      <point x="264" y="182.2" type="line" smooth="yes"/>
      <point x="373.6" y="182.2"/>
      <point x="438.4" y="251.2"/>
      <point x="438.4" y="355.2" type="curve" smooth="yes"/>
      <point x="438.4" y="465"/>
      <point x="381.4" y="538.4"/>
      <point x="273.6" y="538.4" type="curve" smooth="yes"/>
    </contour>
  </outline>
</glyph>
<glyph name="oslash" format="2">
  <advance width="496"/>
  <unicode hex="00F8"/>
  <outline>
    <contour>
      <point x="443" y="520" type="line"/>
      <point x="477" y="520" type="line"/>
      <point x="79" y="0" type="line"/>
      <point x="46" y="0" type="line"/>
    </contour>
    <component base="o"/>
  </outline>
</glyph>
<glyph name="uni0302" format="2">
  <advance width="0"/>
  <unicode hex="0302"/>
  <anchor x="0" y="830.4" name="_AccentCenter"/>
  <outline>
    <contour>
      <point x="-12" y="931" type="line"/>
      <point x="12" y="931" type="line"/>
      <point x="140" y="784" type="line"/>
      <point x="115.2" y="760.8" type="line"/>
      <point x="0" y="898.8" type="line"/>
      <point x="-110" y="761" type="line"/>
      <point x="-136" y="784" type="line"/>
    </contour>
  </outline>
</glyph>
